<svg xmlns="http://www.w3.org/2000/svg" xmlns:xlink="http://www.w3.org/1999/xlink" width="1386" zoomAndPan="magnify" viewBox="0 0 1039.5 519.750007" height="693" preserveAspectRatio="xMidYMid meet" version="1.0"><defs><clipPath id="8506adc99c"><path d="M 0 0 L 1038.25 0 L 1038.25 519.5 L 0 519.5 Z M 0 0 " clip-rule="nonzero"></path></clipPath><clipPath id="b6c477b590"><path d="M 259 0 L 779 0 L 779 519.5 L 259 519.5 Z M 259 0 " clip-rule="nonzero"></path></clipPath><clipPath id="f28167714c"><path d="M 0 0 L 1038.25 0 L 1038.25 519.5 L 0 519.5 Z M 0 0 " clip-rule="nonzero"></path></clipPath><clipPath id="39cb24439d"><path d="M 259 0 L 779 0 L 779 519.5 L 259 519.5 Z M 259 0 " clip-rule="nonzero"></path></clipPath></defs><g clip-path="url(#8506adc99c)"><path fill="#ffffff" d="M 778.90625 519.265625 C 623.125 519.265625 549.5625 393.777344 480.328125 281.269531 C 419.746094 177.414062 363.492188 86.542969 259.640625 86.542969 C 164.441406 86.542969 86.550781 164.433594 86.550781 259.632812 C 86.550781 354.832031 164.441406 432.722656 259.640625 432.722656 L 259.640625 519.265625 C 116.839844 519.265625 0.00390625 402.429688 0.00390625 259.632812 C 0.00390625 116.835938 116.839844 0 259.640625 0 C 415.417969 0 488.980469 125.488281 558.214844 237.996094 C 623.125 341.851562 675.050781 432.722656 778.90625 432.722656 C 874.101562 432.722656 951.992188 354.832031 951.992188 259.632812 C 951.992188 164.433594 874.101562 86.542969 778.90625 86.542969 L 778.90625 0 C 921.703125 0 1038.539062 116.835938 1038.539062 259.632812 C 1038.539062 402.429688 921.703125 519.265625 778.90625 519.265625 Z M 778.90625 519.265625 " fill-opacity="1" fill-rule="nonzero"></path></g><g clip-path="url(#b6c477b590)"><path fill="#ffffff" d="M 467.34375 419.738281 C 419.746094 480.320312 341.855469 519.265625 259.640625 519.265625 L 259.640625 432.722656 C 328.875 432.722656 385.128906 393.777344 415.417969 337.523438 C 428.398438 363.484375 445.710938 389.449219 467.34375 419.738281 Z M 778.90625 0 L 778.90625 86.542969 C 709.667969 86.542969 653.414062 125.488281 623.125 181.742188 C 605.816406 155.78125 588.507812 129.816406 571.199219 99.527344 C 618.796875 38.945312 696.6875 0 778.90625 0 Z M 778.90625 0 " fill-opacity="1" fill-rule="nonzero"></path></g><g clip-path="url(#f28167714c)"><path fill="#ffffff" d="M 778.90625 519.265625 C 623.125 519.265625 549.5625 393.777344 480.328125 281.269531 C 419.746094 177.414062 363.492188 86.542969 259.640625 86.542969 C 164.441406 86.542969 86.550781 164.433594 86.550781 259.632812 C 86.550781 354.832031 164.441406 432.722656 259.640625 432.722656 L 259.640625 519.265625 C 116.839844 519.265625 0.00390625 402.429688 0.00390625 259.632812 C 0.00390625 116.835938 116.839844 0 259.640625 0 C 415.417969 0 488.980469 125.488281 558.214844 237.996094 C 623.125 341.851562 675.050781 432.722656 778.90625 432.722656 C 874.101562 432.722656 951.992188 354.832031 951.992188 259.632812 C 951.992188 164.433594 874.101562 86.542969 778.90625 86.542969 L 778.90625 0 C 921.703125 0 1038.539062 116.835938 1038.539062 259.632812 C 1038.539062 402.429688 921.703125 519.265625 778.90625 519.265625 Z M 778.90625 519.265625 " fill-opacity="1" fill-rule="nonzero"></path></g><g clip-path="url(#39cb24439d)"><path fill="#ffffff" d="M 467.34375 419.738281 C 419.746094 480.320312 341.855469 519.265625 259.640625 519.265625 L 259.640625 432.722656 C 328.875 432.722656 385.128906 393.777344 415.417969 337.523438 C 428.398438 363.484375 445.710938 389.449219 467.34375 419.738281 Z M 778.90625 0 L 778.90625 86.542969 C 709.667969 86.542969 653.414062 125.488281 623.125 181.742188 C 605.816406 155.78125 588.507812 129.816406 571.199219 99.527344 C 618.796875 38.945312 696.6875 0 778.90625 0 Z M 778.90625 0 " fill-opacity="1" fill-rule="nonzero"></path></g></svg>